<svg id="visual" viewBox="0 0 900 600" width="900" height="600" xmlns="http://www.w3.org/2000/svg" xmlns:xlink="http://www.w3.org/1999/xlink" version="1.1">

<rect x="0" y="0" width="900" height="600" fill="#000000"></rect>

<path d="M0 204L15 211.3C30 218.7 60 233.3 90 239.3C120 245.3 150 242.7 180 242.2C210 241.7 240 243.3 270 253C300 262.7 330 280.3 360 285.8C390 291.3 420 284.7 450 280C480 275.3 510 272.7 540 275.8C570 279 600 288 630 288.3C660 288.7 690 280.3 720 265.2C750 250 780 228 810 230.8C840 233.7 870 261.3 885 275.2L900 289L900 601L885 601C870 601 840 601 810 601C780 601 750 601 720 601C690 601 660 601 630 601C600 601 570 601 540 601C510 601 480 601 450 601C420 601 390 601 360 601C330 601 300 601 270 601C240 601 210 601 180 601C150 601 120 601 90 601C60 601 30 601 15 601L0 601Z" fill="rgb(230,0,76)"></path>

<path d="M0 297L15 301.8C30 306.7 60 316.3 90 319.7C120 323 150 320 180 317.2C210 314.3 240 311.7 270 304.5C300 297.3 330 285.7 360 280.7C390 275.7 420 277.3 450 283.7C480 290 510 301 540 310.2C570 319.3 600 326.7 630 323.5C660 320.3 690 306.7 720 304C750 301.3 780 309.7 810 313.2C840 316.7 870 315.3 885 314.7L900 314L900 601L885 601C870 601 840 601 810 601C780 601 750 601 720 601C690 601 660 601 630 601C600 601 570 601 540 601C510 601 480 601 450 601C420 601 390 601 360 601C330 601 300 601 270 601C240 601 210 601 180 601C150 601 120 601 90 601C60 601 30 601 15 601L0 601Z" fill="rgb(0, 128, 255)"></path>

<path d="M0 359L15 357.2C30 355.3 60 351.7 90 355.5C120 359.3 150 370.7 180 382.2C210 393.7 240 405.3 270 399.8C300 394.3 330 371.7 360 362.2C390 352.7 420 356.3 450 367.5C480 378.7 510 397.3 540 402.2C570 407 600 398 630 399.3C660 400.7 690 412.3 720 415.5C750 418.7 780 413.3 810 403C840 392.7 870 377.3 885 369.7L900 362L900 601L885 601C870 601 840 601 810 601C780 601 750 601 720 601C690 601 660 601 630 601C600 601 570 601 540 601C510 601 480 601 450 601C420 601 390 601 360 601C330 601 300 601 270 601C240 601 210 601 180 601C150 601 120 601 90 601C60 601 30 601 15 601L0 601Z" fill="#FFFF00"></path>

<path d="M0 417L15 417.7C30 418.3 60 419.7 90 425.5C120 431.3 150 441.7 180 446.2C210 450.7 240 449.3 270 445.7C300 442 330 436 360 436.3C390 436.7 420 443.3 450 440.8C480 438.3 510 426.7 540 422.2C570 417.7 600 420.3 630 423.3C660 426.3 690 429.7 720 429C750 428.3 780 423.7 810 428.7C840 433.7 870 448.3 885 455.7L900 463L900 601L885 601C870 601 840 601 810 601C780 601 750 601 720 601C690 601 660 601 630 601C600 601 570 601 540 601C510 601 480 601 450 601C420 601 390 601 360 601C330 601 300 601 270 601C240 601 210 601 180 601C150 601 120 601 90 601C60 601 30 601 15 601L0 601Z" fill="rgb(230,0,76)"></path>

<path d="M0 523L15 524.2C30 525.3 60 527.7 90 531.2C120 534.7 150 539.3 180 538.7C210 538 240 532 270 531.5C300 531 330 536 360 532.2C390 528.3 420 515.7 450 508.2C480 500.7 510 498.3 540 506C570 513.7 600 531.3 630 539C660 546.7 690 544.3 720 537.2C750 530 780 518 810 515.3C840 512.7 870 519.3 885 522.7L900 526L900 601L885 601C870 601 840 601 810 601C780 601 750 601 720 601C690 601 660 601 630 601C600 601 570 601 540 601C510 601 480 601 450 601C420 601 390 601 360 601C330 601 300 601 270 601C240 601 210 601 180 601C150 601 120 601 90 601C60 601 30 601 15 601L0 601Z" fill="rgb(0, 128, 255)"></path></svg>

